<svg width="130" height="90" viewBox="0 0 130 90" fill="none" xmlns="http://www.w3.org/2000/svg">
<path d="M50.4852 59.6712C50.481 56.4858 48.8716 53.3779 45.943 50.883V42.5787C45.943 42.3124 45.7564 42.0617 45.4392 41.9018C45.1217 41.7418 44.7109 41.6914 44.3299 41.7653L34.737 43.6282C34.1971 43.733 33.8256 44.0646 33.8256 44.4417V45.7879C32.9939 45.6659 32.1511 45.5771 31.3012 45.5233V39.4182C31.3012 39.1631 31.1295 38.9214 30.8343 38.7606C30.5388 38.5998 30.1512 38.5371 29.7791 38.5896L20.1861 39.9445C19.602 40.0271 19.1839 40.3727 19.1839 40.7732V45.5233C18.334 45.5771 17.4912 45.6659 16.6595 45.7879V43.3517C16.6595 43.0818 16.4678 42.8281 16.1435 42.6687C15.819 42.5091 15.4008 42.4628 15.0172 42.5441L5.42595 44.5765C4.90086 44.6877 4.5439 45.0146 4.5439 45.384V50.8817C1.61233 53.3777 0.00222642 56.4884 3.85508e-05 59.6772C-0.000298044 59.7081 0.00155237 59.7392 0.0062647 59.7703L4.49526 89.2393C4.56107 89.6714 5.10349 90 5.75093 90H44.7352C45.3826 90 45.925 89.6713 45.9908 89.2393L50.4798 59.7703C50.4845 59.7371 50.4861 59.7042 50.4852 59.6712ZM47.9138 58.8373H45.943V54.0202C47.0698 55.5147 47.7431 57.155 47.9138 58.8373ZM43.4186 43.7055V58.8374H39.5819C38.9269 58.8374 38.3806 59.1736 38.3242 59.6115L38.0438 61.7912C37.9141 62.7983 37.2947 63.6954 36.3501 64.383V45.0781L43.4186 43.7055ZM33.8256 47.5271V65.5127C33.1203 65.686 32.3577 65.7812 31.5607 65.7812H31.3012V47.2252C32.1533 47.2865 32.9968 47.3878 33.8256 47.5271ZM28.7767 40.4619V65.7812H21.7082V41.4603L28.7767 40.4619ZM19.1839 47.2252V65.7812H18.9247C18.1275 65.7812 17.3648 65.686 16.6595 65.5126V47.5271C17.4883 47.3878 18.3318 47.2865 19.1839 47.2252ZM14.135 44.5073V64.3825C13.1907 63.695 12.5715 62.7981 12.4418 61.791L12.161 59.6112C12.1047 59.1735 11.5585 58.8373 10.9035 58.8373H7.06802V46.0047L14.135 44.5073ZM4.54356 58.8373H2.57112C2.74177 57.1537 3.4158 55.5126 4.54356 54.0175V58.8373ZM4.51697 72.7255H45.9685L44.5238 82.2091H5.96164L4.51697 72.7255ZM6.89047 88.3063L6.21964 83.9027H44.266L43.5951 88.3063H6.89047ZM46.2266 71.0318H4.25897L2.65947 60.5312H9.74564L9.92672 61.9369C10.1218 63.452 11.1491 64.8527 12.8194 65.8808C14.4898 66.9087 16.6579 67.475 18.9247 67.475H31.5607C33.8275 67.475 35.9957 66.9088 37.666 65.8808C39.3364 64.8528 40.3636 63.4521 40.5589 61.9369L40.7396 60.5312H47.8258L46.2266 71.0318Z" fill="#3DADC6"/>
<path d="M122.155 90H74.7377C71.8621 90 69.5226 87.66 69.5226 84.784V80.7954C69.5226 80.0693 70.1112 79.4805 70.8373 79.4805H126.056C126.782 79.4805 127.37 80.0693 127.37 80.7954V84.784C127.371 87.66 125.031 90 122.155 90ZM72.152 82.1103V84.784C72.152 86.2101 73.3119 87.3701 74.7377 87.3701H122.155C123.581 87.3701 124.741 86.2101 124.741 84.784V82.1103H72.152Z" fill="#3DADC6"/>
<path d="M126.056 65.0162H70.8376C70.1114 65.0162 69.5228 64.4274 69.5228 63.7012V58.4854C69.5228 56.286 71.3118 54.4968 73.5108 54.4968H123.383C125.582 54.4968 127.371 56.286 127.371 58.4854V63.7012C127.371 64.4275 126.782 65.0162 126.056 65.0162ZM72.1521 62.3863H124.741V58.4854C124.741 57.7362 124.132 57.1267 123.383 57.1267H73.5108C72.7617 57.1267 72.1523 57.7363 72.1523 58.4854V62.3863H72.1521Z" fill="#3DADC6"/>
<path d="M120.885 82.1104H76.0088C72.4323 82.1104 69.5228 79.2003 69.5228 75.6234V74.133C69.5228 70.5561 72.4324 67.646 76.0088 67.646H80.8626C81.567 67.646 82.2296 67.9565 82.6807 68.4979L87.9288 74.7967L93.1771 68.4979C93.628 67.9566 94.2907 67.646 94.9951 67.646H120.885C124.461 67.646 127.371 70.5561 127.371 74.133V75.6234C127.371 79.2003 124.461 82.1104 120.885 82.1104ZM76.0088 70.2759C73.8823 70.2759 72.1523 72.0062 72.1523 74.133V75.6234C72.1523 77.7502 73.8823 79.4805 76.0088 79.4805H120.885C123.011 79.4805 124.741 77.7502 124.741 75.6234V74.133C124.741 72.0062 123.011 70.2759 120.885 70.2759H95.1183L89.7468 76.7225C89.2958 77.2638 88.6331 77.5743 87.9288 77.5743C87.2245 77.5743 86.5619 77.2639 86.1108 76.7227L80.7394 70.2759H76.0088V70.2759Z" fill="#3DADC6"/>
<path d="M87.9288 78.1655C87.5386 78.1655 87.1686 77.9922 86.9188 77.6922L80.7395 70.2758H70.8374C68.6625 70.2758 66.8932 68.5062 66.8932 66.331C66.8932 64.1559 68.6625 62.3862 70.8374 62.3862H126.056C128.231 62.3862 130 64.1559 130 66.331C130 68.5062 128.231 70.2758 126.056 70.2758H95.1182L88.9389 77.6922C88.689 77.9922 88.319 78.1655 87.9288 78.1655ZM70.8374 65.0161C70.1124 65.0161 69.5226 65.606 69.5226 66.331C69.5226 67.0561 70.1124 67.646 70.8374 67.646H81.3552C81.7454 67.646 82.1153 67.8193 82.3651 68.1192L87.9288 74.7966L93.4924 68.1192C93.7422 67.8194 94.1122 67.646 94.5024 67.646H126.056C126.781 67.646 127.371 67.0561 127.371 66.331C127.371 65.606 126.781 65.0161 126.056 65.0161H70.8374Z" fill="#3DADC6"/>
<path d="M123.426 57.1267H73.4669C72.7408 57.1267 72.1522 56.538 72.1522 55.8117C72.1522 49.4616 74.9062 43.5001 79.9067 39.0251C84.8661 34.5871 91.4505 32.1429 98.4467 32.1429C105.443 32.1429 112.027 34.5871 116.987 39.0251C121.987 43.5001 124.741 49.4616 124.741 55.8117C124.741 56.5378 124.152 57.1267 123.426 57.1267ZM74.8273 54.4968H122.066C121.3 43.5063 110.999 34.7727 98.4466 34.7727C85.8946 34.7727 75.5936 43.5063 74.8273 54.4968Z" fill="#3DADC6"/>
<path d="M106.335 51.8669C105.999 51.8669 105.662 51.7384 105.405 51.4818C104.892 50.9683 104.892 50.1357 105.405 49.622L108.035 46.9922C108.548 46.4788 109.381 46.4788 109.894 46.9922C110.408 47.5056 110.408 48.3383 109.894 48.8519L107.265 51.4818C107.008 51.7384 106.672 51.8669 106.335 51.8669Z" fill="#3DADC6"/>
<path d="M97.1318 42.6623C96.7953 42.6623 96.459 42.534 96.2022 42.2772C95.6888 41.7637 95.6888 40.9311 96.2022 40.4176L98.8316 37.7877C99.3454 37.2744 100.178 37.2743 100.691 37.7877C101.204 38.3012 101.204 39.1338 100.691 39.6473L98.0615 42.2772C97.8048 42.5339 97.4683 42.6623 97.1318 42.6623Z" fill="#3DADC6"/>
<path d="M105.02 45.2923C104.684 45.2923 104.347 45.1638 104.091 44.9071C103.577 44.3937 103.577 43.561 104.091 43.0474L106.72 40.4175C107.234 39.9042 108.066 39.9042 108.579 40.4175C109.093 40.931 109.093 41.7636 108.579 42.2773L105.95 44.9071C105.693 45.1638 105.357 45.2923 105.02 45.2923Z" fill="#3DADC6"/>
<path d="M97.1318 50.552C96.7953 50.552 96.459 50.4237 96.2022 50.1669C95.6888 49.6534 95.6888 48.8208 96.2022 48.3073L98.8316 45.6774C99.3454 45.1639 100.178 45.1641 100.691 45.6774C101.204 46.1909 101.204 47.0235 100.691 47.537L98.0615 50.1669C97.8048 50.4236 97.4683 50.552 97.1318 50.552Z" fill="#3DADC6"/>
<path d="M87.9287 51.8669C87.5923 51.8669 87.2557 51.7384 86.9991 51.4818C86.4857 50.9683 86.4857 50.1357 86.9991 49.622L89.6285 46.9922C90.1419 46.4788 90.9744 46.4788 91.4879 46.9922C92.0013 47.5056 92.0013 48.3383 91.4879 48.8519L88.8585 51.4818C88.6017 51.7384 88.2651 51.8669 87.9287 51.8669Z" fill="#3DADC6"/>
<path d="M87.9287 45.2923C87.5923 45.2923 87.2557 45.1638 86.9991 44.9071C86.4857 44.3937 86.4857 43.561 86.9991 43.0474L89.6285 40.4175C90.1419 39.9042 90.9744 39.9042 91.4879 40.4175C92.0013 40.931 92.0013 41.7636 91.4879 42.2773L88.8585 44.9071C88.6017 45.1638 88.2651 45.2923 87.9287 45.2923Z" fill="#3DADC6"/>
<path d="M78.7257 51.8669C78.3893 51.8669 78.0527 51.7384 77.7961 51.4818C77.2827 50.9683 77.2827 50.1357 77.7961 49.622L80.4255 46.9922C80.9389 46.4788 81.7714 46.4788 82.2849 46.9922C82.7983 47.5056 82.7983 48.3383 82.2849 48.8519L79.6555 51.4818C79.3987 51.7384 79.0621 51.8669 78.7257 51.8669Z" fill="#3DADC6"/>
<path d="M114.224 51.8669C113.887 51.8669 113.551 51.7384 113.294 51.4818C112.78 50.9683 112.78 50.1357 113.294 49.622L115.923 46.9922C116.437 46.4788 117.269 46.4788 117.783 46.9922C118.296 47.5056 118.296 48.3383 117.783 48.8519L115.153 51.4818C114.896 51.7384 114.56 51.8669 114.224 51.8669Z" fill="#3DADC6"/>
<path d="M83.6889 19.8612H36.6019V26.3197H83.6889V19.8612Z" fill="#F6F6F6"/>
<path d="M40.0264 26.3201L41.5244 42.8803L44.2508 73.0199L45.7339 89.4146H74.5569L76.0398 73.0199L78.7664 42.8803L80.2644 26.3201H40.0264Z" fill="#F6F6F6"/>
<path d="M65.8959 3H60.4176V19.6697H65.8959V3Z" fill="#F6F6F6"/>
<path d="M64.5082 16.8614V17.8614H65.5082H81.6018C81.9381 17.8614 82.301 18.1651 82.301 18.6542V25.1127C82.301 25.6016 81.9379 25.9055 81.6018 25.9055H79.7221H78.8085L78.7261 26.8154L73.1654 88.2874C73.1248 88.7364 72.7851 89 72.4698 89H43.6468C43.3314 89 42.9918 88.7364 42.9511 88.2874L37.3904 26.8154L37.3081 25.9055H36.3945H34.5148C34.1786 25.9055 33.8156 25.6016 33.8156 25.1127V18.6542C33.8156 18.1653 34.1786 17.8614 34.5148 17.8614H56.6314H57.6314V16.8614V1.79283C57.6314 1.30391 57.9945 1 58.3307 1H63.809C64.1452 1 64.5082 1.30391 64.5082 1.79283V16.8614ZM60.0299 2.58566H59.0299V3.58566V16.6697V17.6697H60.0299H62.1097H63.1097V16.6697V3.58566V2.58566H62.1097H60.0299ZM70.925 87.4143H71.8386L71.9209 86.5044L77.3041 26.9956L77.4027 25.9055H76.3082H39.8084H38.7138L38.8125 26.9956L44.1956 86.5044L44.2779 87.4143H45.1915H70.925ZM35.214 23.3199V24.3199H36.214H79.9025H80.9025V23.3199V20.447V19.447H79.9025H36.214H35.214V20.447V23.3199Z" fill="#3DADC6" stroke="#3DADC6" stroke-width="2"/>
<path d="M44.5012 39.7007L44.7831 42.9825C44.8631 43.9135 45.6042 44.6138 46.4733 44.6138C46.5248 44.6138 46.5765 44.6113 46.6286 44.6063C47.5634 44.517 48.2524 43.6451 48.1676 42.6591L47.8857 39.3773C47.8011 38.3913 46.9734 37.6628 46.0402 37.7535C45.1054 37.8428 44.4164 38.7147 44.5012 39.7007Z" fill="#3DADC6"/>
<path d="M47.1676 50.8813C46.2331 50.9705 45.5438 51.8424 45.6286 52.8284L47.7658 77.716C47.8458 78.647 48.5868 79.3473 49.456 79.3473C49.5073 79.3473 49.5591 79.3447 49.6113 79.3397C50.5459 79.2504 51.2351 78.3786 51.1503 77.3925L49.0132 52.5048C48.9285 51.5188 48.1017 50.7884 47.1676 50.8813Z" fill="#3DADC6"/>
</svg>
