<svg width="85" height="80" viewBox="0 0 85 80" fill="none" xmlns="http://www.w3.org/2000/svg">
<path d="M74.4341 80H10.566C6.69282 80 3.54163 76.7645 3.54163 72.7878V67.2727C3.54163 66.2687 4.33443 65.4545 5.31246 65.4545H79.6875C80.6653 65.4545 81.4583 66.2687 81.4583 67.2727V72.7878C81.4585 76.7645 78.3073 80 74.4341 80ZM7.08329 69.0909V72.7878C7.08329 74.7596 8.64552 76.3636 10.566 76.3636H74.4341C76.3546 76.3636 77.9168 74.7596 77.9168 72.7878V69.0909H7.08329Z" fill="#3DADC6"/>
<path d="M79.6877 45.4545H5.3127C4.33467 45.4545 3.54187 44.6403 3.54187 43.6363V36.4243C3.54187 33.3832 5.95144 30.9091 8.91334 30.9091H76.0871C79.049 30.9091 81.4585 33.3832 81.4585 36.4243V43.6363C81.4585 44.6405 80.6656 45.4545 79.6877 45.4545ZM7.08336 41.8181H77.9167V36.4243C77.9167 35.3882 77.0957 34.5455 76.0869 34.5455H8.91334C7.90432 34.5455 7.08354 35.3884 7.08354 36.4243V41.8181H7.08336Z" fill="#3DADC6"/>
<path d="M72.7225 69.0909H12.2779C7.46072 69.0909 3.54187 65.0671 3.54187 60.1212V58.0605C3.54187 53.1147 7.4609 49.0908 12.2779 49.0908H18.8157C19.7645 49.0908 20.657 49.5201 21.2645 50.2687L28.3334 58.9781L35.4023 50.2687C36.0097 49.5203 36.9022 49.0908 37.8511 49.0908H72.7223C77.5393 49.0908 81.4584 53.1147 81.4584 58.0605V60.1212C81.4585 65.0671 77.5395 69.0909 72.7225 69.0909ZM12.2779 52.7272C9.41378 52.7272 7.08354 55.1198 7.08354 58.0605V60.1212C7.08354 63.062 9.41378 65.4545 12.2779 65.4545H72.7225C75.5866 65.4545 77.9169 63.062 77.9169 60.1212V58.0605C77.9169 55.1198 75.5866 52.7272 72.7225 52.7272H38.017L30.7821 61.641C30.1745 62.3894 29.282 62.8189 28.3334 62.8189C27.3847 62.8189 26.4922 62.3896 25.8847 61.6412L18.6497 52.7272H12.2779V52.7272Z" fill="#3DADC6"/>
<path d="M28.3333 63.6363C27.8077 63.6363 27.3094 63.3967 26.973 62.982L18.6499 52.7272H5.3125C2.38319 52.7272 0 50.2803 0 47.2727C0 44.265 2.38319 41.8181 5.3125 41.8181H79.6875C82.6168 41.8181 85 44.265 85 47.2727C85 50.2803 82.6168 52.7272 79.6875 52.7272H38.017L29.6939 62.982C29.3572 63.3967 28.8589 63.6363 28.3333 63.6363ZM5.3125 45.4545C4.33606 45.4545 3.54167 46.2701 3.54167 47.2727C3.54167 48.2752 4.33606 49.0908 5.3125 49.0908H19.4792C20.0047 49.0908 20.5031 49.3305 20.8395 49.7452L28.3333 58.9781L35.8271 49.7452C36.1636 49.3307 36.6619 49.0908 37.1875 49.0908H79.6875C80.6639 49.0908 81.4583 48.2752 81.4583 47.2727C81.4583 46.2701 80.6639 45.4545 79.6875 45.4545H5.3125Z" fill="#3DADC6"/>
<path d="M76.146 34.5455H8.85433C7.8763 34.5455 7.0835 33.7315 7.0835 32.7273C7.0835 23.947 10.7929 15.7039 17.5282 9.5162C24.2082 3.37964 33.0769 0 42.5002 0C51.9235 0 60.7922 3.37964 67.4721 9.5162C74.2075 15.7039 77.9168 23.947 77.9168 32.7273C77.9168 33.7314 77.1239 34.5455 76.146 34.5455ZM10.6866 30.9092H74.3135C73.2813 15.7124 59.4065 3.63637 42.5 3.63637C25.5935 3.63637 11.7188 15.7124 10.6866 30.9092Z" fill="#3DADC6"/>
<path d="M53.1252 27.2728C52.6718 27.2728 52.2188 27.0952 51.873 26.7403C51.1815 26.0303 51.1815 24.879 51.873 24.1688L55.4147 20.5324C56.1064 19.8226 57.2273 19.8226 57.9192 20.5324C58.6107 21.2424 58.6107 22.3937 57.9192 23.1039L54.3775 26.7403C54.0315 27.0952 53.5783 27.2728 53.1252 27.2728Z" fill="#3DADC6"/>
<path d="M40.7292 14.5455C40.2758 14.5455 39.8229 14.368 39.477 14.0129C38.7855 13.3029 38.7855 12.1517 39.477 11.4417L43.0187 7.80529C43.7107 7.09547 44.8317 7.09529 45.5232 7.80529C46.2147 8.51529 46.2147 9.66657 45.5232 10.3766L41.9813 14.0129C41.6357 14.3679 41.1823 14.5455 40.7292 14.5455Z" fill="#3DADC6"/>
<path d="M51.3543 18.1819C50.9009 18.1819 50.448 18.0042 50.1021 17.6493C49.4106 16.9393 49.4106 15.788 50.1021 15.0779L53.6438 11.4415C54.3355 10.7317 55.4564 10.7317 56.1483 11.4415C56.8398 12.1515 56.8398 13.3028 56.1483 14.0129L52.6066 17.6493C52.2606 18.0042 51.8074 18.1819 51.3543 18.1819Z" fill="#3DADC6"/>
<path d="M40.7292 25.4546C40.2758 25.4546 39.8229 25.2772 39.477 24.9221C38.7855 24.2121 38.7855 23.0608 39.477 22.3508L43.0187 18.7144C43.7107 18.0044 44.8317 18.0046 45.5232 18.7144C46.2147 19.4244 46.2147 20.5757 45.5232 21.2857L41.9813 24.9221C41.6357 25.277 41.1823 25.4546 40.7292 25.4546Z" fill="#3DADC6"/>
<path d="M28.3333 27.2728C27.8801 27.2728 27.4268 27.0952 27.0811 26.7403C26.3896 26.0303 26.3896 24.879 27.0811 24.1688L30.6228 20.5324C31.3143 19.8226 32.4356 19.8226 33.1273 20.5324C33.8188 21.2424 33.8188 22.3937 33.1273 23.1039L29.5856 26.7403C29.2398 27.0952 28.7864 27.2728 28.3333 27.2728Z" fill="#3DADC6"/>
<path d="M28.3333 18.1819C27.8801 18.1819 27.4268 18.0042 27.0811 17.6493C26.3896 16.9393 26.3896 15.788 27.0811 15.0779L30.6228 11.4415C31.3143 10.7317 32.4356 10.7317 33.1273 11.4415C33.8188 12.1515 33.8188 13.3028 33.1273 14.0129L29.5856 17.6493C29.2398 18.0042 28.7864 18.1819 28.3333 18.1819Z" fill="#3DADC6"/>
<path d="M15.9374 27.2728C15.4843 27.2728 15.0309 27.0952 14.6853 26.7403C13.9937 26.0303 13.9937 24.879 14.6853 24.1688L18.2269 20.5324C18.9184 19.8226 20.0397 19.8226 20.7314 20.5324C21.4229 21.2424 21.4229 22.3937 20.7314 23.1039L17.1897 26.7403C16.8439 27.0952 16.3906 27.2728 15.9374 27.2728Z" fill="#3DADC6"/>
<path d="M63.7502 27.2728C63.2968 27.2728 62.8438 27.0952 62.498 26.7403C61.8065 26.0303 61.8065 24.879 62.498 24.1688L66.0397 20.5324C66.7314 19.8226 67.8523 19.8226 68.5442 20.5324C69.2357 21.2424 69.2357 22.3937 68.5442 23.1039L65.0025 26.7403C64.6565 27.0952 64.2033 27.2728 63.7502 27.2728Z" fill="#3DADC6"/>
</svg>
