<svg width="100" height="100" viewBox="0 0 100 100" fill="none" xmlns="http://www.w3.org/2000/svg">
<path d="M92.3098 87.306H7.69026C4.59827 87.306 2.09143 84.7994 2.09143 81.7072V70.1447H97.9086V81.7072C97.9086 84.7992 95.402 87.306 92.3098 87.306Z" fill="#FF7731"/>
<path d="M93.7342 58.2172H6.26599V70.1447H93.7342V58.2172Z" fill="#8C4F39"/>
<path d="M93.7342 46.2889H6.26599V58.2164H93.7342V46.2889Z" fill="#8C4F39"/>
<path d="M97.9086 46.2896H2.09143C2.09143 27.7353 17.1326 12.6939 35.6871 12.6939H64.3131C82.8674 12.6939 97.9086 27.7355 97.9086 46.2896Z" fill="#FF7731"/>
<path d="M97.9086 68.1525H95.726V60.2092H98.008C99.1082 60.2092 100 59.3172 100 58.2172C100 57.1172 99.1082 56.2252 98.008 56.2252H95.726V48.2818H97.9086C99.0088 48.2818 99.9006 47.3898 99.9006 46.2898C99.9006 26.6668 83.9361 10.7023 64.3129 10.7023H35.6871C16.0641 10.7023 0.0994141 26.6668 0.0994141 46.2898C0.0994141 47.3898 0.991211 48.2818 2.09141 48.2818H4.27402V56.2252H1.99199C0.891797 56.225 0 57.1172 0 58.2172C0 59.3172 0.891797 60.2092 1.99199 60.2092H4.27402V68.1525H2.09141C0.991211 68.1525 0.0994141 69.0445 0.0994141 70.1445V81.707C0.0994141 85.8928 3.50469 89.2976 7.69023 89.2976H92.3098C96.4955 89.2976 99.9006 85.8924 99.9006 81.707V70.1445C99.9006 69.0445 99.0088 68.1525 97.9086 68.1525ZM4.1457 44.2976C5.17695 27.7959 18.9299 14.6863 35.6871 14.6863H64.3131C81.0705 14.6863 94.8232 27.7961 95.8545 44.2976H4.1457ZM91.7418 48.2816V56.225H8.2582V48.2816H91.7418ZM8.2582 60.2092H91.742V68.1525H8.2582V60.2092ZM95.9166 72.1367V81.7072C95.9166 83.6959 94.2986 85.3139 92.3098 85.3139H7.69023C5.70137 85.3139 4.0834 83.6959 4.0834 81.7072V72.1367H95.9166Z" fill="#333333"/>
<path d="M34.0969 21.6437H34.8922C35.9924 21.6437 36.8842 20.7518 36.8842 19.6518C36.8842 18.5518 35.9924 17.6598 34.8922 17.6598H34.0969C32.9967 17.6598 32.1049 18.5518 32.1049 19.6518C32.1049 20.7518 32.9967 21.6437 34.0969 21.6437Z" fill="#333333"/>
<path d="M44.0363 21.6437H44.8316C45.9318 21.6437 46.8236 20.7518 46.8236 19.6518C46.8236 18.5518 45.9318 17.6598 44.8316 17.6598H44.0363C42.9361 17.6598 42.0443 18.5518 42.0443 19.6518C42.0443 20.7518 42.9361 21.6437 44.0363 21.6437Z" fill="#333333"/>
<path d="M55.1685 21.6437H55.9638C57.064 21.6437 57.9558 20.7518 57.9558 19.6518C57.9558 18.5518 57.064 17.6598 55.9638 17.6598H55.1685C54.0683 17.6598 53.1765 18.5518 53.1765 19.6518C53.1765 20.7518 54.0683 21.6437 55.1685 21.6437Z" fill="#333333"/>
<path d="M65.1082 21.6437H65.9035C67.0037 21.6437 67.8955 20.7518 67.8955 19.6518C67.8955 18.5518 67.0037 17.6598 65.9035 17.6598H65.1082C64.008 17.6598 63.1162 18.5518 63.1162 19.6518C63.1162 20.7518 64.008 21.6437 65.1082 21.6437Z" fill="#333333"/>
<path d="M40.8556 41.7215H42.0484C43.1486 41.7215 44.0404 40.8295 44.0404 39.7295C44.0404 38.6295 43.1486 37.7375 42.0484 37.7375H40.8556C39.7554 37.7375 38.8636 38.6295 38.8636 39.7295C38.8636 40.8295 39.7554 41.7215 40.8556 41.7215Z" fill="#333333"/>
<path d="M10.043 41.7215H33.3016C34.4018 41.7215 35.2936 40.8295 35.2936 39.7295C35.2936 38.6295 34.4018 37.7375 33.3016 37.7375H10.043C8.94282 37.7375 8.05103 38.6295 8.05103 39.7295C8.05103 40.8295 8.94282 41.7215 10.043 41.7215Z" fill="#333333"/>
</svg>
