<svg width="80" height="100" viewBox="0 0 80 100" fill="none" xmlns="http://www.w3.org/2000/svg">
<path d="M77.6515 31.0547L74.2515 41.5089H71.7657H54.4214V31.0547H73.713H77.6515Z" fill="white"/>
<path d="M74.3236 26.4023C74.3236 27.9937 74.1138 29.549 73.7131 31.0546H54.4214H42.2115H6.28628C5.88554 29.549 5.67578 27.9937 5.67578 26.4023C5.67578 12.7542 21.0446 1.69141 40.0012 1.69141C58.9579 1.69141 74.3236 12.7542 74.3236 26.4023Z" fill="#3DADC6"/>
<path d="M47.9846 2.36467C45.4227 1.92536 42.75 1.69116 40.0012 1.69116C21.0446 1.69116 5.67578 12.7539 5.67578 26.4021C5.67578 27.9934 5.88554 29.5487 6.28627 31.0544H22.2531C21.8523 29.5487 21.6426 27.9934 21.6426 26.4021C21.6426 14.7332 32.8782 4.95545 47.9846 2.36467Z" fill="#3DADC6"/>
<path d="M71.7658 41.5088L40.0013 98.3103L8.23682 41.5088H42.2116V44.0153C42.2116 46.4429 44.9448 48.4106 48.3166 48.4106C50.0009 48.4106 51.5287 47.9192 52.6339 47.1236C53.739 46.3279 54.4215 45.2279 54.4215 44.0153V41.5088H71.7658Z" fill="#F6F6F6"/>
<path d="M54.4213 41.5089V44.0154C54.4213 45.228 53.7388 46.328 52.6337 47.1237C51.5285 47.9193 50.0007 48.4107 48.3164 48.4107C44.9446 48.4107 42.2114 46.4429 42.2114 44.0154V41.5089V31.0547H54.4213V41.5089Z" fill="#3DADC6"/>
<path d="M42.2114 31.0547V41.5089H8.23658H5.74764L2.34766 31.0547H6.28613H42.2114Z" fill="#F6F6F6"/>
<path d="M40.0013 98.3104L30.6091 41.4954L8.23682 41.5089L40.0013 98.3104Z" fill="#F6F6F6"/>
<path d="M2.34766 31.0547L5.74764 41.5089L22.1559 41.4954L19.3382 31.1268L2.34766 31.0547Z" fill="#F6F6F6"/>
<path d="M67.1124 27.56C65.8448 27.56 64.8007 26.8329 64.7666 25.915C64.4854 18.3942 57.6112 11.7723 47.6611 9.43738C46.4282 9.14797 45.7545 8.19383 46.1562 7.3062C46.5582 6.41856 47.8837 5.93372 49.1163 6.22269C60.9505 8.99965 69.1261 16.877 69.4605 25.824C69.4952 26.7573 68.473 27.5341 67.1766 27.5593C67.1553 27.5598 67.1337 27.56 67.1124 27.56Z" fill="#F6F6F6"/>
<path d="M40.0468 8.61762C41.3436 8.61762 42.3948 7.86074 42.3948 6.92709C42.3948 5.99344 41.3436 5.23657 40.0468 5.23657C38.75 5.23657 37.6987 5.99344 37.6987 6.92709C37.6987 7.86074 38.75 8.61762 40.0468 8.61762Z" fill="#F6F6F6"/>
<path d="M79.4921 30.0034C79.0466 29.599 78.3691 29.3632 77.6522 29.3632H76.4406C76.5933 28.3821 76.6722 27.3919 76.6722 26.4014C76.6722 11.8436 60.2221 0 40.0019 0C19.7801 0 3.32834 11.8436 3.32834 26.4014C3.32834 27.3916 3.40723 28.3821 3.56001 29.3632H2.3481C1.63116 29.3632 0.953668 29.599 0.508163 30.0034C0.0626585 30.4078 -0.101393 30.9365 0.0617184 31.4392L3.46171 41.8934C3.7106 42.658 4.65734 43.1985 5.74809 43.1985H6.65131L37.8235 98.9408C38.1813 99.5808 39.0432 100 40.0015 100C40.9599 100 41.8218 99.5808 42.1796 98.9408L73.3518 43.1985H74.2515C75.342 43.1985 76.289 42.658 76.5379 41.8934L79.9379 31.4392C80.1017 30.9365 79.9376 30.408 79.4921 30.0034ZM40.0019 3.38104C57.6323 3.38104 71.9761 13.7079 71.9761 26.4014C71.9761 27.393 71.8878 28.3848 71.7125 29.3632H54.4221C53.125 29.3632 52.074 30.1201 52.074 31.0538V44.0144C52.074 45.5059 50.3887 46.7193 48.3171 46.7193C46.2455 46.7193 44.5602 45.5059 44.5602 44.0144V31.0538C44.5602 30.1201 43.5092 29.3632 42.2122 29.3632H8.28806C8.11274 28.3845 8.02445 27.393 8.02445 26.4014C8.02476 13.7079 22.3695 3.38104 40.0019 3.38104ZM5.30978 32.7443H39.8641V39.8174H7.60994L5.30978 32.7443ZM40.0019 93.7832L11.714 43.1985H39.8641V44.0144C39.8641 47.3702 43.6561 50.1003 48.3171 50.1003C52.9782 50.1003 56.7701 47.3702 56.7701 44.0144V43.1985H68.29L40.0019 93.7832ZM72.3903 39.8174H56.7701V32.7443H74.6908L72.3903 39.8174Z" fill="#3DADC6"/>
</svg>
