<svg width="32" height="32" viewBox="0 0 32 32" fill="none" xmlns="http://www.w3.org/2000/svg">
<path d="M31 17.3514C30.7373 20.1944 29.6703 22.9038 27.9239 25.1626C26.1775 27.4213 23.8239 29.136 21.1386 30.106C18.4532 31.0759 15.5472 31.2611 12.7605 30.6397C9.97376 30.0183 7.42164 28.6162 5.40274 26.5973C3.38384 24.5784 1.98167 22.0262 1.3603 19.2395C0.738931 16.4528 0.924058 13.5468 1.89402 10.8614C2.86399 8.17607 4.57867 5.82251 6.83743 4.07611C9.09619 2.32972 11.8056 1.26273 14.6486 1C12.9841 3.25189 12.1832 6.02641 12.3914 8.81894C12.5997 11.6115 13.8033 14.2365 15.7834 16.2166C17.7635 18.1967 20.3885 19.4003 23.1811 19.6086C25.9736 19.8168 28.7481 19.0159 31 17.3514Z" fill="#F7B239" stroke="black" stroke-linecap="round" stroke-linejoin="round"/>
</svg>
