<svg width="80" height="100" viewBox="0 0 80 100" fill="none" xmlns="http://www.w3.org/2000/svg">
<path d="M77.3074 20.7269H2.69263V27.903H77.3074V20.7269Z" fill="#F6F6F6"/>
<path d="M8.11902 27.9031L10.4928 46.3033L14.8132 79.7917L17.1633 98.0081H62.8366L65.1865 79.7917L69.5071 46.3033L71.8809 27.9031H8.11902Z" fill="#F6F6F6"/>
<path d="M49.1127 1.99207H40.4316V20.514H49.1127V1.99207Z" fill="#F6F6F6"/>
<path d="M77.3074 18.7349H51.8053V1.99203C51.8053 0.892032 50.5995 0 49.1126 0H40.4316C38.9448 0 37.739 0.892032 37.739 1.99203V18.7349H2.69262C1.20576 18.7349 0 19.6269 0 20.7269V27.903C0 29.003 1.20576 29.895 2.69262 29.895H5.67121L14.4828 98.1972C14.6148 99.2195 15.7753 100 17.1633 100H62.8367C64.2247 100 65.3852 99.2195 65.5172 98.1972L74.3288 29.895H77.3074C78.7942 29.895 80 29.003 80 27.903V20.7269C80 19.6267 78.7945 18.7349 77.3074 18.7349ZM43.1243 3.98406H46.42V18.5219H43.1243V3.98406ZM60.3888 96.0159H19.6112L11.081 29.895H68.9191L60.3888 96.0159ZM5.38525 25.911V22.7189H74.6147V25.911H5.38525Z" fill="#3DADC6"/>
<path d="M18.5172 44.1122L18.9639 47.7586C19.0907 48.7931 20.2649 49.5712 21.6422 49.5712C21.7238 49.5712 21.8057 49.5684 21.8883 49.5628C23.3695 49.4636 24.4614 48.4949 24.327 47.3993L23.8803 43.7529C23.7462 42.6572 22.4347 41.8479 20.9559 41.9487C19.4747 42.0479 18.3828 43.0166 18.5172 44.1122Z" fill="#3DADC6"/>
<path d="M22.7424 56.5347C21.2614 56.6339 20.1693 57.6027 20.3037 58.6983L23.6902 86.3511C23.817 87.3855 24.9913 88.1636 26.3685 88.1636C26.4498 88.1636 26.532 88.1608 26.6146 88.1552C28.0956 88.056 29.1877 87.0873 29.0533 85.9917L25.6668 58.3387C25.5327 57.2431 24.2225 56.4315 22.7424 56.5347Z" fill="#3DADC6"/>
</svg>
