<svg width="40" height="40" viewBox="0 0 40 40" fill="none" xmlns="http://www.w3.org/2000/svg">
<circle cx="20" cy="20" r="9.5" fill="#F7B239" stroke="black"/>
<path d="M23.8901 32.6075L20.3435 38.5591L16.9625 32.5119L23.8901 32.6075Z" fill="#F95428" stroke="black"/>
<path d="M31.9595 26.961L33.6282 33.6852L26.9705 31.7683L31.9595 26.961Z" fill="#F7B239" stroke="black"/>
<path d="M16.8694 7.00561L20.3734 1.02882L23.7975 7.05175L16.8694 7.00561Z" fill="#F95428" stroke="black"/>
<path d="M8.51227 13.454L6.79559 6.74187L13.4668 8.61125L8.51227 13.454Z" fill="#F7B239" stroke="black"/>
<path d="M32.5183 16.8672L38.5101 20.3453L32.5021 23.7954L32.5183 16.8672Z" fill="#F95428" stroke="black"/>
<path d="M26.9641 8.53124L33.6688 6.78556L31.8283 13.4648L26.9641 8.53124Z" fill="#F7B239" stroke="black"/>
<path d="M7.00561 23.8407L1.02882 20.3367L7.05176 16.9126L7.00561 23.8407Z" fill="#F95428" stroke="black"/>
<path d="M13.0624 32.2722L6.35027 33.9889L8.21966 27.3177L13.0624 32.2722Z" fill="#F7B239" stroke="black"/>
</svg>
