<svg width="12" height="13" viewBox="0 0 12 13" fill="none" xmlns="http://www.w3.org/2000/svg">
<path d="M3.8125 6.26562C3.90625 6.45312 4.04167 6.73438 4.21875 7.10938C4.39583 7.48438 4.58854 7.90104 4.79688 8.35938C5.01562 8.80729 5.22917 9.27083 5.4375 9.75C5.65625 10.2188 5.84896 10.6562 6.01562 11.0625C6.18229 11.4583 6.3125 11.7917 6.40625 12.0625C6.5 12.3333 6.53125 12.4844 6.5 12.5156C6.4375 12.5677 6.34375 12.5938 6.21875 12.5938C6.10417 12.5938 5.98438 12.5781 5.85938 12.5469C5.74479 12.5156 5.63021 12.474 5.51562 12.4219C5.41146 12.3698 5.33854 12.3125 5.29688 12.25C4.88021 11.625 4.51042 11.0521 4.1875 10.5312C3.86458 10.0104 3.58333 9.55729 3.34375 9.17188C3.07292 8.73438 2.83333 8.33333 2.625 7.96875C2.55208 8.08333 2.47396 8.19792 2.39062 8.3125C2.31771 8.41667 2.24479 8.51562 2.17188 8.60938C2.14062 9.14062 2.10938 9.64062 2.07812 10.1094C2.04688 10.5781 2.01562 10.9896 1.98438 11.3438C1.95312 11.6979 1.91667 11.974 1.875 12.1719C1.84375 12.3802 1.8125 12.4844 1.78125 12.4844C1.69792 12.5052 1.59896 12.474 1.48438 12.3906C1.38021 12.3073 1.27604 12.2031 1.17188 12.0781C1.07812 11.9531 0.994792 11.8229 0.921875 11.6875C0.848958 11.5417 0.802083 11.4167 0.78125 11.3125C0.71875 10.2708 0.666667 9.33854 0.625 8.51562C0.583333 7.69271 0.552083 6.96354 0.53125 6.32812C0.510417 5.69271 0.494792 5.14062 0.484375 4.67188C0.473958 4.20312 0.46875 3.80208 0.46875 3.46875C0.46875 2.6875 0.494792 2.15104 0.546875 1.85938C0.588542 1.64062 0.692708 1.43229 0.859375 1.23438C1.02604 1.02604 1.20312 0.848958 1.39062 0.703125C1.58854 0.546875 1.77083 0.432292 1.9375 0.359375C2.10417 0.276042 2.21354 0.25 2.26562 0.28125C2.30729 0.3125 2.33854 0.510417 2.35938 0.875C2.38021 1.22917 2.38542 1.68229 2.375 2.23438C2.36458 2.78646 2.34896 3.40625 2.32812 4.09375C2.30729 4.77083 2.28125 5.45312 2.25 6.14062C2.61458 5.43229 2.98438 4.73438 3.35938 4.04688C3.74479 3.35938 4.09896 2.74479 4.42188 2.20312C4.74479 1.66146 5.02083 1.22396 5.25 0.890625C5.47917 0.546875 5.625 0.375 5.6875 0.375C5.75 0.375 5.82812 0.442708 5.92188 0.578125C6.01562 0.703125 6.09896 0.869792 6.17188 1.07812C6.25521 1.28646 6.3125 1.51042 6.34375 1.75C6.375 1.98958 6.35417 2.21875 6.28125 2.4375C6.23958 2.5625 6.14062 2.76042 5.98438 3.03125C5.82812 3.29167 5.63542 3.59375 5.40625 3.9375C5.17708 4.28125 4.92188 4.65625 4.64062 5.0625C4.36979 5.45833 4.09375 5.85938 3.8125 6.26562ZM8.34375 7.125C8.34375 7.26042 8.33854 7.47396 8.32812 7.76562C8.32812 8.05729 8.32292 8.38542 8.3125 8.75C8.30208 9.11458 8.28646 9.49479 8.26562 9.89062C8.25521 10.276 8.23438 10.6302 8.20312 10.9531C8.17188 11.2656 8.13542 11.526 8.09375 11.7344C8.0625 11.9427 8.02083 12.0469 7.96875 12.0469C7.8125 12.0469 7.66146 11.9375 7.51562 11.7188C7.38021 11.4896 7.23958 11.2448 7.09375 10.9844C7.0625 10.9219 7.02604 10.7396 6.98438 10.4375C6.95312 10.125 6.91667 9.73438 6.875 9.26562C6.84375 8.79688 6.8125 8.27604 6.78125 7.70312C6.75 7.13021 6.71875 6.54688 6.6875 5.95312C6.65625 5.35938 6.63021 4.77604 6.60938 4.20312C6.59896 3.63021 6.58854 3.11458 6.57812 2.65625C6.56771 2.19792 6.56771 1.81771 6.57812 1.51562C6.58854 1.20312 6.60938 1.02083 6.64062 0.96875C6.68229 0.895833 6.82812 0.84375 7.07812 0.8125C7.32812 0.770833 7.63021 0.75 7.98438 0.75C8.34896 0.75 8.73958 0.760417 9.15625 0.78125C9.57292 0.802083 9.95833 0.833333 10.3125 0.875C10.6771 0.90625 10.9792 0.942708 11.2188 0.984375C11.4688 1.02604 11.6094 1.0625 11.6406 1.09375C11.6823 1.13542 11.6875 1.25 11.6562 1.4375C11.6354 1.61458 11.5938 1.8125 11.5312 2.03125C11.4792 2.23958 11.4115 2.4375 11.3281 2.625C11.2552 2.8125 11.1927 2.93229 11.1406 2.98438C11.0885 3.03646 10.8438 3.03125 10.4062 2.96875C9.97917 2.90625 9.29167 2.83333 8.34375 2.75V5.35938C9.07292 5.42188 9.64062 5.47917 10.0469 5.53125C10.4635 5.58333 10.6823 5.61979 10.7031 5.64062C10.7448 5.68229 10.7604 5.76562 10.75 5.89062C10.7396 6.01562 10.7135 6.15104 10.6719 6.29688C10.6302 6.43229 10.5781 6.5625 10.5156 6.6875C10.4531 6.80208 10.3906 6.88021 10.3281 6.92188C10.2969 6.94271 10.1094 6.97396 9.76562 7.01562C9.43229 7.05729 8.95833 7.09375 8.34375 7.125Z" fill="#3DADC6"/>
</svg>
