<svg width="50" height="50" viewBox="0 0 50 50" fill="none" xmlns="http://www.w3.org/2000/svg">
<path d="M43.153 5.29471C39.3775 5.29471 36.3057 8.36628 36.3057 12.1419C36.3057 14.575 37.5827 16.7146 39.5006 17.9291L35.2996 23.8104L29.1064 17.6171C30.7692 16.3667 31.8469 14.3779 31.8469 12.1418C31.8469 8.36628 28.7754 5.29462 25 5.29462C21.2248 5.29462 18.1529 8.36619 18.1529 12.1418C18.1529 14.3779 19.2305 16.3668 20.8937 17.6171L14.7005 23.8103L10.4995 17.929C12.4173 16.7143 13.6941 14.575 13.6941 12.1418C13.6941 8.36628 10.6226 5.29462 6.84724 5.29462C3.07176 5.29471 0 8.36628 0 12.1418C0 15.122 1.91464 17.6623 4.57811 18.6007V42.4362C4.57811 43.6893 5.59402 44.7053 6.84724 44.7053H24.9998H43.1531C44.4062 44.7053 45.4222 43.6894 45.4222 42.4362V18.6006C48.0854 17.6621 50 15.1219 50 12.1417C49.9998 8.36628 46.9283 5.29471 43.153 5.29471Z" fill="#F7B239"/>
<path d="M4.57811 18.6007V42.4362C4.57811 43.6893 5.59402 44.7053 6.84724 44.7053H24.9998H25V5.29471C21.2246 5.29471 18.1529 8.36628 18.1529 12.1418C18.1529 14.378 19.2305 16.3669 20.8937 17.6172L14.7005 23.8104L10.4997 17.9291C12.4175 16.7144 13.6943 14.575 13.6943 12.1418C13.6941 8.36638 10.6227 5.29471 6.84734 5.29471C3.07176 5.29471 0 8.36628 0 12.1418C0 15.122 1.91464 17.6622 4.57811 18.6007Z" fill="#F7B239"/>
</svg>
