<svg width="34" height="34" viewBox="0 0 34 34" fill="none" xmlns="http://www.w3.org/2000/svg">
<path d="M32 18.3514C31.7373 21.1944 30.6703 23.9038 28.9239 26.1626C27.1775 28.4213 24.8239 30.136 22.1386 31.106C19.4532 32.0759 16.5472 32.2611 13.7605 31.6397C10.9738 31.0183 8.42164 29.6162 6.40274 27.5973C4.38384 25.5784 2.98167 23.0262 2.3603 20.2395C1.73893 17.4528 1.92406 14.5468 2.89402 11.8614C3.86399 9.17607 5.57867 6.82251 7.83743 5.07611C10.0962 3.32972 12.8056 2.26273 15.6486 2C13.9841 4.25189 13.1832 7.02641 13.3914 9.81894C13.5997 12.6115 14.8033 15.2365 16.7834 17.2166C18.7635 19.1967 21.3885 20.4003 24.1811 20.6086C26.9736 20.8168 29.7481 20.0159 32 18.3514Z" fill="#F7B239" stroke="white" stroke-width="4" stroke-linecap="round" stroke-linejoin="round"/>
</svg>
