<svg width="48" height="48" viewBox="0 0 48 48" fill="none" xmlns="http://www.w3.org/2000/svg">
<path d="M46 25.982C45.6147 30.1518 44.0497 34.1256 41.4884 37.4384C38.927 40.7513 35.4751 43.2662 31.5366 44.6888C27.5981 46.1114 23.3359 46.3829 19.2487 45.4716C15.1615 44.5602 11.4184 42.5037 8.45735 39.5426C5.4963 36.5816 3.43979 32.8385 2.52844 28.7513C1.6171 24.6641 1.88862 20.4019 3.31123 16.4634C4.73385 12.5249 7.24871 9.07301 10.5616 6.51163C13.8744 3.95026 17.8482 2.38534 22.018 2C19.5767 5.30277 18.402 9.37207 18.7074 13.4678C19.0128 17.5635 20.7782 21.4135 23.6823 24.3177C26.5865 27.2218 30.4365 28.9872 34.5322 29.2926C38.6279 29.598 42.6972 28.4233 46 25.982Z" stroke="#D9D9D9" stroke-width="4" stroke-linecap="round" stroke-linejoin="round"/>
</svg>
